<?xml version="1.0" standalone="no"?><!DOCTYPE svg PUBLIC "-//W3C//DTD SVG 1.1//EN" "http://www.w3.org/Graphics/SVG/1.1/DTD/svg11.dtd"><svg t="1561446439262" class="icon" viewBox="0 0 1026 1024" version="1.1" xmlns="http://www.w3.org/2000/svg" p-id="1432" xmlns:xlink="http://www.w3.org/1999/xlink" width="200.390625" height="200"><defs><style type="text/css"></style></defs><path d="M993.38387 351.560549a31.96005 31.96005 0 0 1-31.96005-31.96005V84.246692a20.326592 20.326592 0 0 0-20.326592-20.326592h-235.353807a31.96005 31.96005 0 0 1 0-63.9201h235.353807a84.374532 84.374532 0 0 1 84.246692 84.246692V319.600499a31.96005 31.96005 0 0 1-31.96005 31.96005zM31.961648 351.560549a31.96005 31.96005 0 0 1-31.96005-31.96005V84.246692A84.374532 84.374532 0 0 1 84.24829 0H319.602097a31.96005 31.96005 0 0 1 0 63.9201H84.24829a20.390512 20.390512 0 0 0-20.326592 20.326592V319.600499a31.96005 31.96005 0 0 1-31.96005 31.96005zM939.754906 1024H704.401099a31.96005 31.96005 0 0 1 0-63.9201h235.353807c11.058177 0 20.326592-11.697378 20.326592-25.50412V704.399501a31.96005 31.96005 0 0 1 63.9201 0v230.176279c0 49.282397-37.840699 89.42422-84.246692 89.42422zM319.602097 1024H84.24829c-46.469913 0-84.246692-40.141823-84.246692-89.42422V704.399501a31.96005 31.96005 0 0 1 63.9201 0v230.176279c0 13.870662 9.332335 25.50412 20.326592 25.50412H319.602097a31.96005 31.96005 0 0 1 0 63.9201zM992.041548 543.96005H33.24005a31.96005 31.96005 0 0 1 0-63.9201h958.801498a31.96005 31.96005 0 0 1 0 63.9201z" p-id="1433"></path></svg>